<?xml version="1.0" standalone="no"?>
<!DOCTYPE svg PUBLIC "-//W3C//DTD SVG 20010904//EN"
 "http://www.w3.org/TR/2001/REC-SVG-20010904/DTD/svg10.dtd">
<svg version="1.0" xmlns="http://www.w3.org/2000/svg"
 width="1080.000000pt" height="1080.000000pt" viewBox="0 0 1080.000000 1080.000000"
 preserveAspectRatio="xMidYMid meet">
<metadata>
Created by potrace 1.11, written by Peter Selinger 2001-2013
</metadata>
<g transform="translate(0.000000,1080.000000) scale(0.100000,-0.100000)"
fill="#000000" stroke="none">
<path d="M6250 6976 c-26 -17 -38 -35 -47 -68 -10 -36 -23 -53 -66 -86 -105
-81 -190 -108 -397 -127 -53 -5 -71 -12 -98 -36 -42 -38 -55 -73 -47 -128 7
-48 41 -108 66 -116 9 -3 26 -16 38 -28 19 -21 22 -40 29 -173 5 -82 6 -151 4
-154 -2 -3 -49 -5 -105 -5 l-100 0 -9 -30 c-16 -58 -22 -251 -8 -298 11 -41
16 -46 56 -57 27 -8 68 -10 104 -7 l60 7 -6 -228 c-7 -273 -7 -237 7 -454 12
-166 11 -179 -5 -197 -19 -21 -19 -23 -10 -149 3 -45 1 -126 -5 -180 -10 -80
-17 -104 -40 -137 -18 -25 -31 -60 -36 -91 -6 -51 -6 -53 37 -97 24 -26 56
-48 73 -52 62 -12 102 -29 155 -65 30 -21 75 -49 100 -64 25 -14 74 -45 110
-67 107 -68 160 -83 266 -80 23 1 46 14 83 47 46 41 51 50 51 87 0 24 -9 56
-19 74 l-20 32 69 77 c87 97 108 146 90 208 -7 25 -20 52 -29 60 -25 22 -88
44 -174 61 -58 10 -83 20 -97 37 -11 13 -19 27 -20 32 0 9 -39 4 -74 -10 -16
-6 -17 -4 -11 17 4 13 17 40 29 59 31 49 44 122 53 295 11 213 10 275 -3 283
-8 5 -13 71 -14 212 -3 287 -9 257 50 262 l50 3 0 -70 c0 -38 3 -80 6 -93 9
-34 54 -52 128 -52 62 0 65 1 94 38 56 71 66 118 55 245 -7 84 -7 117 2 132
28 47 47 128 41 173 -9 67 -55 112 -112 112 -54 0 -89 -13 -131 -50 -32 -29
-38 -30 -124 -30 -83 0 -91 2 -84 18 13 34 17 158 7 225 -6 37 -22 92 -36 122
l-25 55 24 -17 c13 -10 33 -38 45 -62 27 -57 104 -155 139 -177 37 -25 109
-24 143 1 34 25 48 56 48 103 0 52 19 75 115 138 54 35 87 64 95 83 14 34 4
135 -14 150 -11 9 -60 23 -127 36 -18 3 -62 44 -135 126 -64 73 -121 127 -141
135 -51 22 -113 18 -153 -10z m-56 -492 c3 -8 2 -12 -4 -9 -6 3 -10 10 -10 16
0 14 7 11 14 -7z"/>
<path d="M4283 6948 c-43 -46 -53 -69 -53 -125 -1 -48 -1 -48 -61 -88 -60 -40
-109 -108 -109 -152 0 -67 65 -160 127 -184 14 -5 23 -12 20 -16 -4 -3 9 -24
28 -46 19 -22 35 -44 35 -48 0 -17 132 -99 160 -99 88 0 160 73 160 162 1 42
3 44 73 93 72 51 72 51 80 109 7 51 6 62 -17 101 -14 23 -52 65 -85 93 -33 27
-82 76 -109 108 -73 87 -96 106 -144 115 -66 13 -72 11 -105 -23z"/>
<path d="M4184 6158 c-47 -50 -51 -68 -36 -153 7 -34 3 -47 -20 -85 -16 -25
-53 -69 -83 -99 -61 -60 -81 -109 -72 -174 6 -43 47 -94 84 -103 27 -7 31 -18
39 -114 8 -91 6 -198 -5 -236 -5 -19 -3 -42 6 -66 15 -37 15 -79 -1 -328 -3
-47 -8 -137 -10 -200 -6 -143 -17 -184 -68 -236 -60 -62 -71 -137 -30 -204 19
-30 53 -59 69 -60 35 0 131 -47 168 -81 23 -22 45 -39 48 -39 3 0 29 -23 58
-50 60 -58 112 -84 185 -93 48 -7 51 -6 88 32 43 44 57 105 37 162 -10 29 -8
37 13 70 14 20 50 59 81 85 58 50 92 102 106 164 8 33 5 38 -39 83 -25 26 -54
47 -64 47 -9 0 -22 8 -27 18 -5 9 -12 125 -16 257 -6 216 -9 244 -27 277 -13
22 -18 45 -15 60 3 12 10 41 15 63 6 22 13 130 16 240 8 223 10 242 36 250 19
6 80 130 80 164 0 58 -75 131 -136 131 -25 0 -38 9 -66 44 -19 25 -61 66 -94
91 -32 25 -81 63 -108 85 -42 33 -57 39 -109 42 -59 3 -59 3 -103 -44z"/>
</g>
</svg>
